<svg width="24" height="24" viewBox="0 0 24 24" fill="none" xmlns="http://www.w3.org/2000/svg">
<g clip-path="url(#clip0_201_130)">
<path d="M12 0C9.6267 0 7.30655 0.703785 5.33316 2.02236C3.35978 3.34094 1.82171 5.21508 0.913454 7.40779C0.00520456 9.60045 -0.232441 12.0134 0.230579 14.3411C0.693599 16.6689 1.8365 18.807 3.51473 20.4854C5.19296 22.1636 7.33115 23.3064 9.65895 23.7695C11.9867 24.2325 14.3995 23.9947 16.5922 23.0865C18.7849 22.1782 20.6591 20.6403 21.9777 18.6669C23.2962 16.6935 24 14.3734 24 12C24 8.8174 22.7357 5.76516 20.4854 3.51472C18.2349 1.26427 15.1826 0 12 0ZM17.895 8.22L15.93 17.505C15.78 18.165 15.39 18.315 14.835 18.015L11.835 15.795L10.335 17.19C10.2643 17.2823 10.1736 17.3573 10.0696 17.4093C9.9657 17.4612 9.85125 17.4888 9.735 17.49L9.945 14.49L15.495 9.465C15.75 9.255 15.495 9.135 15.135 9.345L8.325 13.62L5.325 12.69C4.68 12.495 4.665 12.045 5.46 11.745L17.025 7.245C17.595 7.08 18.075 7.41 17.895 8.22Z" fill="#24A1DE"/>
</g>
<defs>
<clipPath id="clip0_201_130">
<rect width="24" height="24" fill="white"/>
</clipPath>
</defs>
</svg>
