<svg width="53" height="64" viewBox="0 0 53 64" fill="none" xmlns="http://www.w3.org/2000/svg">
<path fill-rule="evenodd" clip-rule="evenodd" d="M25.0257 48.9433C8.46599 59.2263 -12.0652 43.6032 8.87924 22.065C18.1549 13.3801 23.691 4.9003 25.9265 1.47627C26.4199 0.720424 26.7526 0.210942 26.9291 0C27.0841 0.213403 27.3261 0.623283 27.6683 1.20303C29.5722 4.4279 34.5792 12.9087 44.9789 22.065C63.7391 41.7348 45.9201 58.783 29.0132 49.0075C31.0147 58.1506 32.995 60.3734 34.9079 62.5206C35.3288 62.993 35.7465 63.4619 36.1605 64H18.2812C18.6203 63.4722 18.9537 63.0105 19.2904 62.5442C20.8387 60.4002 22.4575 58.1585 25.0257 48.9433ZM6.86928 32.829C6.86928 31.0094 7.502 29.4626 8.76746 28.1889C10.0329 26.9151 11.5695 26.2782 13.3773 26.2782L17.7407 26.4519C19.1541 26.4519 20.4195 26.8655 21.5371 27.6926C22.6546 28.5197 23.427 29.5619 23.8543 30.8191L13.3773 30.8439C12.7693 30.8605 12.2598 31.0755 11.8489 31.4891C11.4381 31.9026 11.2244 32.4155 11.208 33.0275L11.208 37.3947C11.2244 38.0068 11.4463 38.5279 11.8736 38.958C12.3009 39.3881 12.8103 39.6031 13.402 39.6031H23.8543C23.4106 40.8769 22.63 41.9273 21.5124 42.7545C20.3949 43.5816 19.1376 43.9869 17.7407 43.9703L13.3773 44.1936C11.5695 44.1606 10.0329 43.5071 8.76746 42.2334C7.502 40.9596 6.86106 39.4212 6.84462 37.618L6.86928 32.829ZM17.7407 35.2359C17.7407 34.6404 17.9543 34.1276 18.3816 33.6975C18.8089 33.2674 19.3184 33.0523 19.91 33.0523L32.9508 33.0275C33.5425 33.0275 34.0519 33.2426 34.4792 33.6727C34.9065 34.1028 35.1284 34.6239 35.1448 35.2359C35.1448 35.8315 34.9312 36.3443 34.5039 36.7744C34.0766 37.2045 33.5671 37.4195 32.9755 37.4195H19.91C19.3184 37.4195 18.8089 37.2045 18.3816 36.7744C17.9543 36.3443 17.7407 35.8315 17.7407 35.2359ZM29.0065 30.8439C29.4503 29.5702 30.2309 28.5197 31.3485 27.6926C32.4824 26.882 33.7479 26.4685 35.1448 26.4519H39.6807C41.505 26.4685 43.0498 27.1136 44.3153 28.3874C45.5807 29.6612 46.2134 31.2079 46.2134 33.0275V37.3947C46.197 39.2309 45.5561 40.7859 44.2906 42.0597C43.0252 43.3334 41.4885 43.9703 39.6807 43.9703L35.1448 43.9703C33.7479 43.9538 32.4824 43.5402 31.3484 42.7296C30.2145 41.9191 29.442 40.8769 29.0312 39.6031H39.4835C40.0752 39.6031 40.5846 39.3881 41.0119 38.958C41.4392 38.5279 41.6529 38.0151 41.6529 37.4195L41.6775 33.0275C41.6775 32.432 41.4639 31.9192 41.0366 31.4891C40.6093 31.059 40.0998 30.8439 39.5082 30.8439L29.0065 30.8439Z" fill="black"/>
</svg>
