<svg width="353" height="52" viewBox="0 0 353 52" fill="none" xmlns="http://www.w3.org/2000/svg">
<path d="M17.568 51V6.864H0.288V0.599997H41.976V6.864H24.696V51H17.568ZM46.7698 51V17.4H60.5938C63.5698 17.4 66.1138 17.88 68.2258 18.84C70.3698 19.8 72.0178 21.176 73.1698 22.968C74.3218 24.76 74.8978 26.888 74.8978 29.352C74.8978 31.816 74.3218 33.944 73.1698 35.736C72.0178 37.496 70.3698 38.856 68.2258 39.816C66.1138 40.744 63.5698 41.208 60.5938 41.208H50.2258L53.0098 38.376V51H46.7698ZM68.7538 51L60.2578 38.808H66.9298L75.4738 51H68.7538ZM53.0098 39.048L50.2258 36.072H60.3058C63.0578 36.072 65.1218 35.48 66.4978 34.296C67.9058 33.112 68.6098 31.464 68.6098 29.352C68.6098 27.208 67.9058 25.56 66.4978 24.408C65.1218 23.256 63.0578 22.68 60.3058 22.68H50.2258L53.0098 19.608V39.048ZM96.3272 51.48C91.7192 51.48 88.1032 50.184 85.4792 47.592C82.8872 45 81.5912 41.256 81.5912 36.36V17.4H87.8312V36.12C87.8312 39.576 88.5672 42.088 90.0392 43.656C91.5432 45.224 93.6552 46.008 96.3752 46.008C99.0952 46.008 101.191 45.224 102.663 43.656C104.135 42.088 104.871 39.576 104.871 36.12V17.4H111.015V36.36C111.015 41.256 109.703 45 107.079 47.592C104.487 50.184 100.903 51.48 96.3272 51.48ZM125.514 31.368H142.218V36.504H125.514V31.368ZM125.994 45.768H144.954V51H119.754V17.4H144.282V22.632H125.994V45.768ZM167.849 51V0.599997H187.505C191.921 0.599997 195.689 1.296 198.809 2.688C201.929 4.08 204.329 6.096 206.009 8.736C207.689 11.376 208.529 14.52 208.529 18.168C208.529 21.816 207.689 24.96 206.009 27.6C204.329 30.192 201.929 32.208 198.809 33.648C195.689 35.04 191.921 35.736 187.505 35.736H171.809L175.049 32.352V51H167.849ZM175.049 33.072L171.809 29.472H187.289C191.897 29.472 195.377 28.488 197.729 26.52C200.129 24.552 201.329 21.768 201.329 18.168C201.329 14.568 200.129 11.784 197.729 9.816C195.377 7.848 191.897 6.864 187.289 6.864H171.809L175.049 3.264V33.072ZM232.506 51.48C229.882 51.48 227.466 51.048 225.258 50.184C223.05 49.32 221.13 48.12 219.498 46.584C217.866 45.016 216.602 43.192 215.706 41.112C214.81 39 214.362 36.696 214.362 34.2C214.362 31.704 214.81 29.416 215.706 27.336C216.602 25.224 217.866 23.4 219.498 21.864C221.13 20.296 223.05 19.08 225.258 18.216C227.466 17.352 229.866 16.92 232.458 16.92C235.082 16.92 237.482 17.352 239.658 18.216C241.866 19.08 243.786 20.296 245.418 21.864C247.05 23.4 248.314 25.224 249.21 27.336C250.106 29.416 250.554 31.704 250.554 34.2C250.554 36.696 250.106 39 249.21 41.112C248.314 43.224 247.05 45.048 245.418 46.584C243.786 48.12 241.866 49.32 239.658 50.184C237.482 51.048 235.098 51.48 232.506 51.48ZM232.458 46.008C234.154 46.008 235.722 45.72 237.162 45.144C238.602 44.568 239.85 43.752 240.906 42.696C241.962 41.608 242.778 40.36 243.354 38.952C243.962 37.512 244.266 35.928 244.266 34.2C244.266 32.472 243.962 30.904 243.354 29.496C242.778 28.056 241.962 26.808 240.906 25.752C239.85 24.664 238.602 23.832 237.162 23.256C235.722 22.68 234.154 22.392 232.458 22.392C230.762 22.392 229.194 22.68 227.754 23.256C226.346 23.832 225.098 24.664 224.01 25.752C222.954 26.808 222.122 28.056 221.514 29.496C220.938 30.904 220.65 32.472 220.65 34.2C220.65 35.896 220.938 37.464 221.514 38.904C222.122 40.344 222.954 41.608 224.01 42.696C225.066 43.752 226.314 44.568 227.754 45.144C229.194 45.72 230.762 46.008 232.458 46.008ZM262.736 43.08L262.4 35.688L280.016 17.4H287.024L272.384 32.952L268.928 36.744L262.736 43.08ZM257.168 51V17.4H263.408V51H257.168ZM280.592 51L267.728 35.688L271.856 31.128L287.888 51H280.592ZM297.897 31.368H314.601V36.504H297.897V31.368ZM298.377 45.768H317.337V51H292.137V17.4H316.665V22.632H298.377V45.768ZM324.293 51V17.4H338.117C341.093 17.4 343.637 17.88 345.749 18.84C347.893 19.8 349.541 21.176 350.693 22.968C351.845 24.76 352.421 26.888 352.421 29.352C352.421 31.816 351.845 33.944 350.693 35.736C349.541 37.496 347.893 38.856 345.749 39.816C343.637 40.744 341.093 41.208 338.117 41.208H327.749L330.533 38.376V51H324.293ZM346.277 51L337.781 38.808H344.453L352.997 51H346.277ZM330.533 39.048L327.749 36.072H337.829C340.581 36.072 342.645 35.48 344.021 34.296C345.429 33.112 346.133 31.464 346.133 29.352C346.133 27.208 345.429 25.56 344.021 24.408C342.645 23.256 340.581 22.68 337.829 22.68H327.749L330.533 19.608V39.048Z" fill="black"/>
</svg>
